<svg width="26" height="26" viewBox="0 0 26 26" fill="none" xmlns="http://www.w3.org/2000/svg">
<path d="M21.8542 21.7949L23.4167 23.3574" stroke="white" stroke-linecap="round" stroke-linejoin="round"/>
<path d="M17.1667 19.7115C17.1667 21.1498 18.3327 22.3157 19.7709 22.3157C20.4913 22.3157 21.1433 22.0232 21.6148 21.5505C22.0846 21.0794 22.3751 20.4294 22.3751 19.7115C22.3751 18.2733 21.2091 17.1074 19.7709 17.1074C18.3327 17.1074 17.1667 18.2733 17.1667 19.7115Z" stroke="white" stroke-linecap="round" stroke-linejoin="round"/>
<path d="M4.66675 6.6907V12.9407C4.66675 12.9407 4.66675 16.0657 11.9584 16.0657C19.2501 16.0657 19.2501 12.9407 19.2501 12.9407V6.6907" stroke="white" stroke-linecap="round" stroke-linejoin="round"/>
<path d="M11.9584 3.5657C19.2501 3.5657 19.2501 6.6907 19.2501 6.6907C19.2501 6.6907 19.2501 9.8157 11.9584 9.8157C4.66675 9.8157 4.66675 6.6907 4.66675 6.6907C4.66675 6.6907 4.66675 3.5657 11.9584 3.5657Z" stroke="white" stroke-linecap="round" stroke-linejoin="round"/>
<path d="M11.9584 22.3157C4.66675 22.3157 4.66675 19.1907 4.66675 19.1907V12.9407" stroke="white" stroke-linecap="round" stroke-linejoin="round"/>
</svg>
