<svg width="26" height="26" viewBox="0 0 26 26" fill="none" xmlns="http://www.w3.org/2000/svg">
<path d="M4.66675 6.6907V12.9407C4.66675 12.9407 4.66675 16.0657 11.9584 16.0657C19.2501 16.0657 19.2501 12.9407 19.2501 12.9407V6.6907" stroke="white" stroke-linecap="round" stroke-linejoin="round"/>
<path d="M11.9584 3.5657C19.2501 3.5657 19.2501 6.6907 19.2501 6.6907C19.2501 6.6907 19.2501 9.8157 11.9584 9.8157C4.66675 9.8157 4.66675 6.6907 4.66675 6.6907C4.66675 6.6907 4.66675 3.5657 11.9584 3.5657Z" stroke="white" stroke-linecap="round" stroke-linejoin="round"/>
<path d="M11.9584 22.3157C4.66675 22.3157 4.66675 19.1907 4.66675 19.1907V12.9407" stroke="white" stroke-linecap="round" stroke-linejoin="round"/>
<path d="M19.25 23.3574H20.8125H22.375H19.25ZM20.8125 20.6788H23.243V17.1074H18.3818V20.6788H20.8125Z" stroke="white" stroke-linecap="round" stroke-linejoin="round"/>
</svg>
